<mxfile host="app.diagrams.net" modified="2023-10-20T21:05:35.812Z" agent="Mozilla/5.0 (Windows NT 10.0; Win64; x64) AppleWebKit/537.36 (KHTML, like Gecko) Chrome/118.0.0.0 Safari/537.36" version="22.0.0" etag="cWQBRIOFgGCb5xT-THBd" type="device">
  <diagram id="W7ZjtyYqoqvTXgywkTXL" name="Pagina-1">
    <mxGraphModel dx="2074" dy="1118" grid="1" gridSize="10" guides="1" tooltips="1" connect="1" arrows="1" fold="1" page="1" pageScale="1" pageWidth="827" pageHeight="1169" math="0" shadow="0">
      <root>
        <mxCell id="0" />
        <mxCell id="1" parent="0" />
        <mxCell id="-X_lag1-4qQexO6cUxZ_-4" value="" style="edgeStyle=orthogonalEdgeStyle;rounded=0;orthogonalLoop=1;jettySize=auto;html=1;startArrow=classic;startFill=1;" edge="1" parent="1" source="-X_lag1-4qQexO6cUxZ_-1" target="-X_lag1-4qQexO6cUxZ_-3">
          <mxGeometry relative="1" as="geometry" />
        </mxCell>
        <mxCell id="-X_lag1-4qQexO6cUxZ_-1" value="fasdfa" style="whiteSpace=wrap;html=1;aspect=fixed;" vertex="1" parent="1">
          <mxGeometry x="290" y="450" width="160" height="160" as="geometry" />
        </mxCell>
        <mxCell id="-X_lag1-4qQexO6cUxZ_-3" value="" style="shape=singleArrow;whiteSpace=wrap;html=1;arrowWidth=0.4;arrowSize=0.4;" vertex="1" parent="1">
          <mxGeometry x="330" y="740" width="80" height="60" as="geometry" />
        </mxCell>
      </root>
    </mxGraphModel>
  </diagram>
</mxfile>
